<?xml version="1.0" encoding="UTF-8" standalone="no"?>
<!DOCTYPE svg PUBLIC "-//W3C//DTD SVG 1.1//EN" "http://www.w3.org/Graphics/SVG/1.1/DTD/svg11.dtd">
<svg width="100%" height="100%" viewBox="0 0 488 420" version="1.1" xmlns="http://www.w3.org/2000/svg" xmlns:xlink="http://www.w3.org/1999/xlink" xml:space="preserve" xmlns:serif="http://www.serif.com/" style="fill-rule:evenodd;clip-rule:evenodd;stroke-linejoin:round;stroke-miterlimit:2;">
    <g transform="matrix(1,0,0,1,-6.287,-40.3557)">
        <path d="M246.991,90.793C243.874,155.903 246.243,221.462 246.625,286.68C246.695,290.053 251.802,290.058 251.87,286.68C252.254,221.464 254.623,155.902 251.506,90.793C251.462,89.586 250.457,88.616 249.249,88.616C248.04,88.616 247.035,89.586 246.991,90.793Z" style="fill-rule:nonzero;"/>
        <g transform="matrix(0.99735,-0.0727587,0.0727587,0.99735,-16.2552,24.974)">
            <g transform="matrix(64,0,0,64,244.179,244.46)">
            </g>
            <text x="171.731px" y="244.46px" style="font-family:'InkFree', 'Ink Free', cursive;font-size:64px;stroke:black;stroke-width:0.94px;">JS</text>
        </g>
        <g transform="matrix(0.688001,0,0,0.823154,34.6163,44.7572)">
            <path d="M128.132,199.334C119.539,200.35 109.9,201.674 102.149,205.685C99.822,206.885 101.207,210.835 103.732,210.539C112.348,209.53 120.706,206.8 129.403,205.919C138.197,205.028 146.803,205.782 155.578,205.609C159.194,205.537 159.684,199.943 156.111,199.251C147.128,197.511 137.161,198.267 128.132,199.334Z" style="fill-rule:nonzero;"/>
        </g>
        <g transform="matrix(0.688001,0,0,0.823154,34.6163,44.7572)">
            <path d="M96.149,234.974C115.018,227.409 135.304,225.164 155.449,227.149C159.149,227.449 160.068,221.142 156.335,220.596C129.179,216.081 102.722,224.902 77.635,234.337C74.905,235.229 75.268,239.53 78.335,239.485C84.466,239.4 90.456,237.063 96.149,234.974Z" style="fill-rule:nonzero;"/>
        </g>
        <g transform="matrix(0.688001,0,0,0.823154,34.6163,44.7572)">
            <path d="M156.26,241.459C143.356,241.339 130.478,242.659 117.866,245.393C104.882,248.231 92.698,254.603 79.549,256.343C76.931,256.689 75.587,261.043 78.849,261.537C84.783,262.437 90.36,260.837 95.955,258.92C102.312,256.745 108.686,254.677 115.215,253.071C128.649,249.81 142.44,248.253 156.263,248.436C160.75,248.48 160.755,241.493 156.26,241.459Z" style="fill-rule:nonzero;"/>
        </g>
        <g transform="matrix(0.688001,0,0,0.823154,34.6163,44.7572)">
            <path d="M137.611,267.851C117.785,264.842 100.696,280.451 81.201,280.92C78.622,281.32 79.201,284.88 81.201,285.591C94.977,289.618 108.115,278.9 121.129,276.121C126.477,274.8 132.505,275.303 137.611,273.404C140.018,272.508 140.659,268.443 137.611,267.851Z" style="fill-rule:nonzero;"/>
        </g>
        <path d="M171.381,95.639C176.765,94.472 175.166,86.439 169.745,87.418C164.361,88.585 165.961,96.622 171.381,95.639Z" style="fill-rule:nonzero;"/>
        <path d="M170.706,108.149C165.322,109.315 166.921,117.349 172.341,116.369C177.725,115.2 176.126,107.165 170.706,108.149Z" style="fill-rule:nonzero;"/>
        <path d="M172.341,138.908C177.725,137.741 176.126,129.708 170.706,130.687C165.322,131.854 166.921,139.891 172.341,138.908Z" style="fill-rule:nonzero;"/>
        <path d="M171.169,152.66C165.785,153.827 167.384,161.86 172.804,160.88C178.188,159.713 176.589,151.677 171.169,152.66Z" style="fill-rule:nonzero;"/>
        <path d="M229.3,97.565C217.226,90.871 203.448,87.869 189.684,88.933C188.253,88.988 187.106,90.181 187.106,91.613C187.106,93.045 188.253,94.238 189.684,94.293C196.257,94.827 202.743,95.301 209.161,96.936C215.315,98.504 220.951,101.099 226.783,103.536C230.238,104.976 232.444,99.354 229.3,97.565Z" style="fill-rule:nonzero;"/>
        <path d="M227.558,117.29C215.566,113.072 200.596,108.99 187.812,111.359C185.73,111.746 185.836,115.005 187.812,115.465C194.084,116.924 200.639,117.135 206.97,118.446C213.359,119.763 219.638,121.565 225.753,123.836C229.835,125.354 231.675,118.738 227.558,117.29Z" style="fill-rule:nonzero;"/>
        <path d="M226.015,137.152C214.023,133.873 201.035,130.688 188.591,132.667C186.273,133.198 186.223,136.906 188.591,137.407C194.444,138.643 200.612,138.454 206.54,139.397C212.539,140.34 218.459,141.725 224.254,143.54C228.327,144.823 230.086,138.406 226.015,137.152Z" style="fill-rule:nonzero;"/>
        <path d="M219.962,160.3C209.955,158.335 199.504,155.467 189.242,156.206C186.296,156.518 185.1,161.051 188.486,161.793C195.015,163.222 201.805,163.609 208.386,164.872C211.646,165.498 214.89,166.201 218.119,166.982C220.953,167.669 223.556,168.849 226.405,167.882C227.525,167.544 228.296,166.505 228.296,165.336C228.296,164.653 228.033,163.995 227.562,163.501C225.605,161.214 222.8,160.954 219.962,160.3Z" style="fill-rule:nonzero;"/>
        <path d="M99.293,167.326C100.219,176.292 106.546,176.875 114.058,174.789C120.033,173.859 126.011,173.728 132.024,173.339C134.262,173.255 137.43,174.21 138.461,171.533C140.461,169.654 140.84,166.059 141.52,163.604C143.02,157.815 144.882,151.824 144.86,145.816C145.192,144.816 144.732,143.537 144.445,142.511C142.981,137.074 141.828,131.558 140.993,125.989C141.311,121.674 141.301,117.341 140.963,113.027C138.15,92.567 99.776,80.248 83.635,91.327C65.467,104.827 50.722,137.368 74.915,152.509C81.137,155.933 92.046,154.241 97.262,159.303C98.151,161.919 98.83,164.602 99.293,167.326ZM71.33,140.174C62.113,125.812 75.849,102.78 89.261,95.352C101.792,91.607 116.799,95.059 126.911,103.742C128.611,106.012 129.511,109.335 128.179,111.86C121.389,120.381 124.89,130.644 134.227,135.473C135.617,138.573 137.942,141.29 138.427,144.822C138.753,151.495 136.045,157.78 134.212,164.199C133.555,165.102 132.652,165.799 131.612,166.205C131.512,166.166 131.419,166.121 131.32,166.085C131.995,166.363 130.867,165.856 130.794,165.711C131.194,166.182 130.453,165.327 130.329,165.302C130.003,161.887 129.326,158.514 128.309,155.238C127.409,152.438 123.64,153.656 124.022,156.42C124.44,159.133 124.678,161.56 125.097,164.325C124.361,166.925 120.126,167.667 118.63,165.365C118.476,162.484 117.953,159.635 117.073,156.887C116.251,154.12 112.447,155.331 112.854,158.05C113.188,160.276 114.554,165.51 112.954,167.68C110.583,167.653 107.987,167.939 106.265,166.063C101,140.555 81.461,155.886 71.33,140.174Z" style="fill-rule:nonzero;"/>
        <path d="M105.949,141.7C117.771,134.821 116.183,111.879 99.434,115.592C87.053,117.808 91.489,140.679 104.456,134.645C104.503,134.691 104.545,134.745 104.595,134.785C103.151,136.732 100.95,137.98 98.538,138.22C98.243,138.202 97.948,138.242 97.669,138.337C94.877,138.384 93.946,142.018 96.732,143.043C99.293,143.882 102.232,143.211 104.658,142.343C105.161,142.325 105.632,142.09 105.949,141.7Z" style="fill-rule:nonzero;"/>
        <path d="M118.876,146.295C120.619,145.862 120.983,143.804 121.656,142.359C121.835,142.317 122.007,142.25 122.166,142.159C122.22,142.204 122.272,142.254 122.324,142.304C122.816,143.177 123.309,144.048 123.781,144.92C125.793,148.02 130.033,144.926 128.119,141.82C127.393,138.634 123.939,127.906 119.944,128.499C117.155,128.699 116.861,131.399 116.652,133.607C116.323,137.085 115.986,140.559 115.802,144.047C115.712,145.737 117.486,146.6 118.876,146.295Z" style="fill-rule:nonzero;"/>
        <g transform="matrix(0.676506,-0.0383327,0.0643573,1.1358,85.2043,5.81125)">
            <g transform="matrix(64,0,0,64,359.548,132.359)">
            </g>
            <text x="274.3px" y="132.359px" style="font-family:'InkFree', 'Ink Free', cursive;font-size:64px;stroke:black;stroke-width:1.5px;">&lt;/&gt;</text>
        </g>
        <path d="M377.3,90.1C386.874,92.362 396.881,93.078 406.541,95.089C415.976,96.669 425.016,100.266 434.407,101.835C437.478,102.143 438.489,97.521 435.949,96.142C427.687,91.657 416.515,90.278 407.337,88.595C397.871,86.86 387.568,84.875 377.925,85.481C375.4,85.635 374.589,89.454 377.3,90.1Z" style="fill-rule:nonzero;"/>
        <path d="M361.482,112.5C373.371,114.165 385.559,113.863 397.432,115.991C409.459,117.749 421.223,120.491 433.075,123.125C437.584,124.125 439.496,117.392 434.992,116.171C422.955,112.992 410.724,110.6 398.377,109.01C386.732,107.442 373.121,105.079 361.482,107.445C358.982,107.949 358.982,111.985 361.482,112.5Z" style="fill-rule:nonzero;"/>
        <g transform="matrix(0.820434,0,0,1,64.4322,0)">
            <path d="M361.756,136.712C385.064,138.469 408.467,139.992 431.373,145.088C435.79,145.988 437.673,139.188 433.24,138.314C409.734,134.027 385.713,130.105 361.756,130.625C357.775,130.823 357.915,136.3 361.756,136.712Z" style="fill-rule:nonzero;"/>
        </g>
        <g transform="matrix(0.745401,0,0,0.754064,171.642,140.552)">
            <path d="M281.081,156.2C295.772,166.5 315.953,165.958 331.068,157.446C356.411,142.661 352.157,106.833 331.824,89.499C289.909,56.908 240.539,124.853 281.081,156.2ZM324.55,141.471C321.096,138.829 317.719,136.781 314.397,134.171C316.233,132.925 318.064,131.672 319.891,130.413C321.416,134.112 322.969,137.8 324.55,141.475L324.55,141.471ZM321.409,114.461C324.633,114.394 329.598,114.078 332.823,114.086C330.246,115.82 325.94,117.856 323.387,119.623C322.705,117.915 322.053,116.192 321.409,114.465L321.409,114.461ZM308.569,129.861C302.12,124.999 293.114,126.689 301.533,134.416C297.04,137.244 290.664,142.239 284.603,144.776C288.158,136.92 294.537,126.781 298.238,119.04C299.891,117.223 302.003,115.886 304.352,115.168C307.461,115.197 310.6,114.973 313.714,114.768C314.841,117.825 316.036,120.857 317.238,123.885C314.354,125.889 311.49,127.919 308.569,129.862L308.569,129.861ZM286.72,150.001C293.1,146.794 301.115,140.732 307.83,138.62C314.186,142.15 319.342,147.414 325.545,151.193C322.716,158.483 290.89,158.392 286.72,150.001ZM333.532,144.484C330.951,138.428 328.437,132.343 325.989,126.228C330.433,123.177 334.903,120.165 339.428,117.228C346.49,125.598 342.115,142.281 333.532,144.484ZM313.119,88.645C312.724,81.909 337.982,94.374 335.408,105.676C334.555,109.42 326.012,109.024 318.926,107.697C317.207,102.159 314.191,94.719 312.946,88.953C313,88.851 313.056,88.748 313.115,88.645L313.119,88.645ZM308.357,99.185C309.256,102.118 310.215,105.032 311.233,107.925C308.599,107.998 305.972,108.235 303.368,108.637C304.989,105.466 306.651,102.315 308.353,99.185L308.357,99.185ZM284.338,95.828C284.338,95.828 298.429,84.239 303.985,87.669C298.916,97.569 296.008,110.633 291.339,120.714C288.613,118.314 281.017,116.239 278.084,114.15C280.302,114.206 292.717,115.414 294.927,115.224C297.878,114.829 299.292,110.171 295.708,109.454C292.114,108.754 279.519,108.633 275.712,107.359C277.655,103.654 281.347,98.753 284.338,95.828ZM269.899,125.236C269.899,125.236 270.46,120.663 271.049,118.436C275.93,120.235 284.491,123.21 288.421,126.937C285.855,132.299 281.685,139.786 277.178,144.559C271.704,139.727 268.974,132.479 269.899,125.236Z" style="fill-rule:nonzero;"/>
        </g>
        <path d="M296.676,185.288C293.992,185.571 294.076,190.697 296.676,190.825C307.516,191.356 317.684,193.86 328.082,196.841C337.529,199.55 347.751,202.998 357.682,202.136C360.69,201.875 360.282,196.573 357.741,196.162C346.695,195.016 335.798,192.73 325.223,189.34C316.011,186.738 306.319,184.271 296.676,185.288Z" style="fill-rule:nonzero;"/>
        <path d="M357.884,214.536C331.358,214.684 301.464,197.731 276.494,206.194C273.7,207.259 275.394,212.177 277.91,212.003C291.91,210.38 305.443,212.019 318.942,215.853C331.472,219.033 344.81,223.521 357.808,221.753C363.1,221.027 361.468,214.679 357.884,214.536Z" style="fill-rule:nonzero;"/>
        <path d="M356.353,237.154C331.522,235.695 301.053,220.687 277.579,232.417C275.314,233.733 276.751,238.101 279.354,237.632C285.935,236.447 291.705,234.639 298.486,234.744C317.873,235.224 336.232,243.87 355.642,244.01C359.518,244.009 360.21,237.534 356.353,237.154Z" style="fill-rule:nonzero;"/>
        <path d="M337.977,256.861C319.151,254.655 295.033,245.536 277.567,255.823C275.429,257.23 277.125,261.396 279.715,260.735C289.841,258.15 298.521,257.111 308.955,258.69C318.338,260.109 327.224,263.019 336.755,263.021C341.684,263.022 341.21,257.366 337.977,256.861Z" style="fill-rule:nonzero;"/>
        <path d="M478.646,92.105C473.456,85.405 467.626,73.753 464.456,67.054C463.041,64.037 460.034,62.069 456.703,61.981C441.41,61.622 429.213,58.406 415.184,54.426C394.646,47.133 373.614,42.402 352.765,41.106C350.441,40.951 348.26,42.292 347.349,44.436L340.749,60.099L331.07,44.03C330.002,42.269 328.029,41.252 325.975,41.402C298.054,43.322 273.886,52.087 249.085,70.483C216.725,46.447 174.448,36.5 134.661,41.7C102.547,46.252 72.54,60.458 40.031,62.912C38.239,62.826 36.583,63.904 35.938,65.578C33.253,73.223 24.474,93.578 15.638,94.863C12.579,95.746 7.248,93.492 6.287,97.589C9.21,192.9 9.323,289.079 19.5,384.136C19.783,386.497 21.813,388.293 24.191,388.286C37.697,386.415 69.429,383.061 105.105,379.515C106.405,399.766 107.049,402.015 107.405,431.453C107.456,435.692 111.167,437.818 114.14,440.434C118.505,444.278 122.892,448.1 127.3,451.9C127.93,452.493 128.764,452.823 129.629,452.823C131.494,452.823 133.029,451.288 133.029,449.423C133.029,449.153 132.997,448.884 132.933,448.621C129.417,434.256 128.313,385.24 127.556,377.306C139.013,376.191 150.564,375.085 161.783,374.024C164.465,394.908 162.283,423.024 162.103,442.258C162.072,445.499 166.746,446.894 168.322,443.942C170.591,439.695 172.533,435.142 174.707,430.807C179.874,439.6 185.047,448.407 190.37,457.097C191.618,460.735 197.721,460.521 197.441,456.152C196.083,435.02 194.933,332.713 194.841,330.458C212.492,330.164 230.09,332.457 247.076,337.265C247.125,339.313 247.234,341.347 247.42,343.34C234.471,339.531 221.072,337.467 207.578,337.202C207.547,337.201 207.516,337.201 207.485,337.201C205.378,337.201 203.644,338.935 203.644,341.042C203.644,341.213 203.655,341.384 203.678,341.553L206.819,364.917C207.196,367.7 209.729,369.721 212.526,369.47C253.508,364.008 283.075,368.838 326.579,372.986C327.632,389.36 328.923,405.859 328.335,422.207C328.204,425.844 332.769,426.359 334.592,423.902C337.659,419.769 337.809,414.52 340.481,410.263C345.151,401.619 355.09,418.537 358.657,409.08C358.764,398.245 357.309,354.48 357.781,338.465C367.05,340.628 376.275,343.079 385.595,345.551C385.534,347.151 385.484,348.751 385.447,350.351C380.353,348.951 375.247,347.608 370.125,346.404C369.914,346.354 369.699,346.328 369.482,346.328C367.97,346.328 366.725,347.573 366.725,349.085C366.725,349.211 366.734,349.337 366.751,349.462L370.116,373.599C370.429,375.833 372.242,377.579 374.486,377.809C378.353,378.205 382.199,378.601 386.026,378.997C387.033,397.082 389.045,415.178 390.91,432.997C391.21,435.915 395.782,438.208 397.279,434.722C398.959,430.81 410.601,413.215 415.217,406.295C416.396,404.53 416.921,402.406 416.699,400.295C416.063,394.279 415.991,388.216 416.485,382.187C442.926,385.006 465.104,387.507 475.803,388.987C478.186,389 480.222,387.201 480.503,384.835C490.726,289.756 490.53,193.611 493.715,98.296C493.462,96.812 492.147,95.726 490.642,95.759C486.409,96.028 481.373,95.915 478.646,92.105ZM463.346,82.405C465.008,85.519 466.865,88.525 468.906,91.405C462.106,175.925 457.972,260.951 452.944,345.688C448.989,338.407 445.554,330.9 444.806,322.988C453.646,243.021 459.827,162.825 463.349,82.4L463.346,82.405ZM36.6,81.772C39.96,162.152 46.536,242.363 55.185,322.332C54.436,330.218 50.985,337.722 47.039,344.995C42,260.238 37.21,175.288 31.087,90.691C33.109,87.836 34.951,84.857 36.6,81.772ZM103.067,340.943C85.883,345.492 68.222,350.061 49.367,353.349C50.546,351.606 51.684,349.834 52.76,348.022C54.766,346.27 57.075,344.9 59.573,343.979C73.973,341.796 88.422,337.817 102.901,333.407C102.78,335.92 102.836,338.438 103.068,340.943L103.067,340.943ZM36,359.466C29.885,273.794 23.95,188.085 20.534,102.274C22.626,100.752 24.52,98.975 26.174,96.985C30.359,182.676 38.926,268.154 41.574,353.944C40.061,356.103 38.173,357.974 36,359.466ZM40.214,365.838C41.992,363.593 43.614,361.293 45.303,359.053C66.053,356.94 85.059,352.498 103.43,347.732C103.51,349.39 103.592,351.048 103.676,352.705C82.763,358.677 61.867,364.789 40.211,365.838L40.214,365.838ZM57.754,338.665C58.583,336.865 59.338,335.02 59.986,333.156C91.18,331.085 118.424,313.065 148.2,305.284C177.857,297.508 209.141,298.48 238.258,308.084C241.05,310.352 243.223,313.291 244.573,316.625C181.6,286.854 120.032,327.626 57.751,338.665L57.754,338.665ZM142.013,343.133C137.67,343.927 133.348,344.861 129.04,345.887C129.148,344.229 129.26,342.571 129.377,340.914C138.777,338.503 148.146,336.266 157.644,334.48C158.558,336.347 159.314,338.287 159.905,340.28C153.905,341.118 147.935,342.085 142.01,343.133L142.013,343.133ZM247.116,330.52C203.494,319.087 166.934,324.831 129.887,333.975C130.414,330.685 131.643,327.544 132.434,324.252C170.663,312.739 208.949,304.659 246.785,324.989C247.133,326.811 247.244,328.67 247.116,330.52ZM241.672,300.8C161.908,276.869 134.55,306.639 63.189,325.332L63.125,325.289C53.583,240.565 47.579,156.8 44.113,71.626C51.35,72.169 59.856,68.443 66.322,67.065C142.676,45.631 176.827,35.51 249.047,79.084C249.942,79.267 250.874,79.069 251.619,78.54C274.452,62.817 297.106,52.662 323.639,49.718C324.995,49.574 326.321,50.218 327.045,51.374L339.315,70.837C339.855,71.692 340.798,72.212 341.809,72.212C342.982,72.212 344.048,71.513 344.515,70.437L352.8,51.33C353.407,49.914 354.866,49.045 356.4,49.185C389.81,52.069 420.41,68.569 454.04,70.315C450.14,155.463 444.84,240.578 435.034,325.287L434.967,325.332C354.052,304.488 349.947,280.624 258.622,301.187C253.028,302.468 247.202,302.335 241.672,300.8ZM254.852,324.889C277.785,313.036 300.825,311.475 323.892,314.659C324.451,318.465 324.734,322.306 324.739,326.153C301.321,323.408 277.597,324.977 254.745,330.782C254.712,328.83 254.715,326.805 254.852,324.889ZM254.861,343.468C254.944,341.484 254.938,339.487 254.899,337.488C277.645,331.276 301.389,329.58 324.787,332.497C324.798,334.776 324.848,336.974 324.948,339.206C301.459,336.919 277.767,337.243 254.861,343.468ZM256.677,316.785C258.28,313.654 260.406,310.82 262.965,308.406C291.741,299.165 322.566,298.33 351.8,306C381.059,313.739 407.621,330.958 438.191,333.767C439.986,335.274 441.379,337.203 442.245,339.381C380.426,328.482 319.291,288.022 256.677,316.785ZM358.039,331.846C358.156,328.611 358.216,325.375 358.057,322.175C385.575,329.952 413.076,340.589 440.422,344.694C442.919,345.615 445.227,346.985 447.232,348.736C448.307,350.546 449.436,352.321 450.617,354.062C417.515,348.311 387.9,338.492 358.039,331.846ZM415.59,358.793C415.147,356.923 415.108,354.979 415.475,353.093C428.394,356.132 441.49,358.36 454.687,359.764C456.353,361.982 457.975,364.326 459.76,366.548C445,365.833 429.888,362.565 415.59,358.793ZM464.011,360.185C461.838,358.687 459.948,356.816 458.429,354.659C461.618,268.892 469.054,183.371 473.829,97.699C475.62,99.558 477.506,101.324 479.478,102.99C476.1,188.8 470.314,274.522 464.011,360.185Z" style="fill-rule:nonzero;"/>
        <g transform="matrix(0.998778,-0.0494205,0.0756898,1.52967,-103.478,-445.786)">
            <g transform="matrix(64,0,0,64,149.401,481.775)">
            </g>
            <text x="123.353px" y="481.775px" style="font-family:'InkFree', 'Ink Free', cursive;font-size:64px;stroke:black;stroke-width:0.73px;">{</text>
        </g>
        <g transform="matrix(1,0,0,1.31777,-10.1253,-61.6127)">
            <g transform="matrix(64,0,0,64,183.152,248.894)">
            </g>
            <text x="157.104px" y="248.894px" style="font-family:'InkFree', 'Ink Free', cursive;font-size:64px;stroke:black;stroke-width:0.8px;">}</text>
        </g>
    </g>
</svg>
